<svg xmlns="http://www.w3.org/2000/svg" viewBox="0 0 255 28" width="255" height="28">
	<style>
		tspan { white-space:pre }
		.shp0 { fill: #333333 } 
	</style>
	<path id="aleksov101@gmail.com " fill-rule="evenodd" class="shp0" d="M7.55 9.02C9.04 9.02 10.14 9.41 10.86 10.18C11.6 10.93 11.97 12.08 11.97 13.63L11.97 21L10.07 21L10.07 19.01C9.77 19.7 9.31 20.23 8.68 20.62C8.05 20.99 7.33 21.17 6.52 21.17C5.77 21.17 5.07 21.02 4.43 20.71C3.81 20.41 3.31 19.99 2.94 19.44C2.57 18.89 2.39 18.29 2.39 17.64C2.39 16.76 2.61 16.08 3.06 15.6C3.51 15.11 4.25 14.75 5.27 14.54C6.3 14.32 7.72 14.21 9.54 14.21L10.07 14.21L10.07 13.42C10.07 12.44 9.87 11.73 9.47 11.3C9.07 10.85 8.42 10.63 7.53 10.63C6.18 10.63 4.85 11.05 3.52 11.88L2.87 10.46C3.48 10.03 4.21 9.69 5.06 9.43C5.92 9.16 6.75 9.02 7.55 9.02ZM6.78 19.63C7.74 19.63 8.53 19.31 9.14 18.67C9.76 18.02 10.07 17.18 10.07 16.15L10.07 15.46L9.64 15.46C8.23 15.46 7.16 15.52 6.42 15.65C5.69 15.76 5.16 15.96 4.84 16.25C4.53 16.52 4.38 16.93 4.38 17.47C4.38 18.1 4.61 18.62 5.06 19.03C5.52 19.43 6.09 19.63 6.78 19.63ZM17.46 21L15.52 21L15.52 4.08L17.46 4.08L17.46 21ZM30.88 14.74L30.88 15.46L22.34 15.46C22.4 16.82 22.77 17.85 23.44 18.55C24.11 19.24 25.07 19.58 26.3 19.58C27.66 19.58 28.91 19.12 30.04 18.19L30.69 19.61C30.18 20.09 29.52 20.47 28.72 20.76C27.92 21.03 27.1 21.17 26.27 21.17C24.45 21.17 23.01 20.63 21.95 19.56C20.91 18.49 20.39 17.01 20.39 15.12C20.39 13.92 20.62 12.86 21.09 11.95C21.55 11.02 22.2 10.3 23.03 9.79C23.88 9.28 24.84 9.02 25.91 9.02C27.46 9.02 28.68 9.53 29.56 10.56C30.44 11.57 30.88 12.96 30.88 14.74ZM25.94 10.54C24.91 10.54 24.09 10.86 23.46 11.5C22.85 12.14 22.49 13.04 22.38 14.21L29.18 14.21C29.15 13.02 28.85 12.12 28.29 11.5C27.73 10.86 26.95 10.54 25.94 10.54ZM37.79 14.93L44.15 21L41.63 21L35.68 15.41L35.68 21L33.74 21L33.74 4.08L35.68 4.08L35.68 14.62L41.13 9.34L43.6 9.34L37.79 14.93ZM49.48 21.17C47.51 21.17 45.95 20.67 44.8 19.66L45.45 18.22C46.07 18.71 46.7 19.07 47.34 19.3C48 19.51 48.74 19.61 49.55 19.61C50.42 19.61 51.07 19.47 51.52 19.18C51.99 18.87 52.22 18.44 52.22 17.88C52.22 17.41 52.07 17.05 51.76 16.78C51.45 16.51 50.95 16.29 50.25 16.13L48.28 15.67C47.29 15.45 46.53 15.07 46 14.52C45.47 13.97 45.21 13.3 45.21 12.5C45.21 11.46 45.62 10.62 46.43 9.98C47.25 9.34 48.34 9.02 49.7 9.02C50.51 9.02 51.29 9.16 52.02 9.43C52.76 9.69 53.38 10.07 53.87 10.56L53.22 11.98C52.15 11.07 50.98 10.61 49.7 10.61C48.88 10.61 48.24 10.77 47.78 11.09C47.33 11.39 47.1 11.82 47.1 12.38C47.1 12.85 47.24 13.22 47.51 13.51C47.8 13.78 48.25 13.99 48.88 14.14L50.87 14.62C51.96 14.87 52.77 15.26 53.3 15.79C53.83 16.3 54.09 16.98 54.09 17.81C54.09 18.83 53.67 19.65 52.84 20.26C52.03 20.87 50.91 21.17 49.48 21.17ZM61.89 21.17C60.78 21.17 59.81 20.92 58.96 20.42C58.13 19.93 57.48 19.22 57.02 18.31C56.57 17.38 56.34 16.31 56.34 15.1C56.34 13.88 56.57 12.81 57.02 11.9C57.48 10.97 58.13 10.26 58.96 9.77C59.81 9.27 60.78 9.02 61.89 9.02C62.99 9.02 63.97 9.27 64.82 9.77C65.67 10.26 66.31 10.97 66.76 11.9C67.23 12.81 67.46 13.88 67.46 15.1C67.46 16.31 67.23 17.38 66.76 18.31C66.31 19.22 65.67 19.93 64.82 20.42C63.97 20.92 62.99 21.17 61.89 21.17ZM61.89 19.56C63.04 19.56 63.92 19.18 64.53 18.43C65.15 17.66 65.46 16.55 65.46 15.1C65.46 13.67 65.15 12.58 64.53 11.81C63.9 11.02 63.02 10.63 61.89 10.63C60.75 10.63 59.87 11.02 59.25 11.81C58.62 12.58 58.31 13.67 58.31 15.1C58.31 16.54 58.61 17.64 59.22 18.41C59.85 19.18 60.74 19.56 61.89 19.56ZM74.63 18.89L78.59 9.34L80.54 9.34L75.5 21L73.67 21L68.66 9.34L70.72 9.34L74.63 18.89ZM89.56 4.08L89.56 19.34L93.28 19.34L93.28 21L83.87 21L83.87 19.34L87.59 19.34L87.59 6.53L84.62 8.4L83.7 6.89L88.14 4.08L89.56 4.08ZM102.35 21.19C100.42 21.19 98.95 20.45 97.94 18.98C96.93 17.51 96.42 15.37 96.42 12.55C96.42 9.72 96.93 7.57 97.94 6.1C98.95 4.63 100.42 3.89 102.35 3.89C104.29 3.89 105.76 4.63 106.77 6.1C107.78 7.55 108.28 9.7 108.28 12.53C108.28 15.36 107.78 17.51 106.77 18.98C105.76 20.45 104.29 21.19 102.35 21.19ZM102.35 19.54C103.7 19.54 104.69 18.97 105.33 17.83C105.97 16.7 106.29 14.93 106.29 12.53C106.29 10.11 105.97 8.35 105.33 7.25C104.7 6.13 103.71 5.57 102.35 5.57C101.01 5.57 100.02 6.13 99.38 7.25C98.74 8.37 98.42 10.13 98.42 12.53C98.42 14.93 98.74 16.7 99.38 17.83C100.02 18.97 101.01 19.54 102.35 19.54ZM118.36 4.08L118.36 19.34L122.08 19.34L122.08 21L112.67 21L112.67 19.34L116.39 19.34L116.39 6.53L113.42 8.4L112.5 6.89L116.94 4.08L118.36 4.08ZM135.3 24.65C133.24 24.65 131.44 24.23 129.9 23.38C128.37 22.53 127.18 21.33 126.35 19.8C125.54 18.25 125.13 16.46 125.13 14.45C125.13 12.34 125.57 10.49 126.45 8.9C127.34 7.32 128.56 6.1 130.1 5.23C131.65 4.37 133.38 3.94 135.3 3.94C137.35 3.94 139.11 4.36 140.56 5.21C142.03 6.04 143.14 7.13 143.87 8.47C144.62 9.82 145 11.24 145 12.74C145 14.31 144.76 15.6 144.28 16.61C143.81 17.6 143.21 18.33 142.48 18.79C141.76 19.24 140.99 19.46 140.18 19.46C139.33 19.46 138.65 19.28 138.16 18.91C137.68 18.53 137.41 18 137.34 17.33L137.3 17.33C136.9 17.98 136.39 18.5 135.78 18.89C135.19 19.27 134.5 19.46 133.7 19.46C132.64 19.46 131.78 19.09 131.13 18.36C130.47 17.61 130.14 16.57 130.14 15.26C130.14 14.17 130.35 13.15 130.77 12.19C131.2 11.23 131.8 10.46 132.57 9.89C133.34 9.31 134.22 9.02 135.21 9.02C135.96 9.02 136.62 9.21 137.18 9.58C137.74 9.93 138.11 10.39 138.28 10.97L138.3 10.97L138.59 9.31L140.15 9.31L139.02 15.82C138.96 16.27 138.93 16.55 138.93 16.68C138.93 17.23 139.06 17.61 139.31 17.83C139.57 18.06 139.95 18.17 140.46 18.17C140.91 18.17 141.37 17.99 141.83 17.64C142.3 17.27 142.69 16.69 143.01 15.89C143.33 15.07 143.49 14.02 143.49 12.74C143.49 11.48 143.19 10.29 142.58 9.17C141.97 8.05 141.05 7.15 139.82 6.46C138.59 5.75 137.08 5.4 135.3 5.4C133.67 5.4 132.2 5.77 130.89 6.5C129.59 7.22 128.57 8.27 127.82 9.65C127.07 11.01 126.69 12.61 126.69 14.45C126.69 16.21 127.03 17.75 127.72 19.08C128.41 20.39 129.4 21.41 130.7 22.13C131.99 22.83 133.53 23.18 135.3 23.18C136.66 23.18 137.83 22.99 138.81 22.61C139.8 22.22 140.56 21.69 141.09 21L143.18 21C142.51 22.12 141.48 23.01 140.1 23.66C138.74 24.32 137.14 24.65 135.3 24.65ZM134.01 18.17C134.81 18.17 135.5 17.93 136.07 17.45C136.66 16.95 137.11 16.32 137.42 15.55C137.72 14.78 137.87 13.98 137.87 13.13C137.87 12.23 137.65 11.55 137.2 11.09C136.77 10.61 136.17 10.37 135.42 10.37C134.65 10.37 133.98 10.6 133.41 11.06C132.85 11.53 132.42 12.14 132.11 12.89C131.82 13.62 131.68 14.39 131.68 15.19C131.68 16.14 131.9 16.87 132.35 17.4C132.8 17.91 133.35 18.17 134.01 18.17ZM156.5 9.31L158.44 9.31L158.44 20.21C158.44 21.95 157.99 23.27 157.1 24.17C156.2 25.05 154.87 25.49 153.11 25.49C151.06 25.49 149.34 24.96 147.95 23.9L148.6 22.46C149.39 22.97 150.12 23.34 150.81 23.57C151.5 23.79 152.26 23.9 153.11 23.9C154.23 23.9 155.08 23.61 155.66 23.02C156.23 22.41 156.52 21.53 156.52 20.38L156.52 18.31C156.19 19.06 155.67 19.64 154.96 20.04C154.27 20.44 153.46 20.64 152.51 20.64C151.49 20.64 150.58 20.4 149.78 19.92C148.99 19.44 148.38 18.76 147.93 17.88C147.5 17 147.28 15.98 147.28 14.83C147.28 13.68 147.5 12.66 147.93 11.78C148.38 10.9 148.99 10.22 149.78 9.74C150.58 9.26 151.49 9.02 152.51 9.02C153.44 9.02 154.25 9.22 154.94 9.62C155.63 10.02 156.15 10.59 156.5 11.33L156.5 9.31ZM152.9 19.03C154.02 19.03 154.9 18.66 155.54 17.93C156.18 17.18 156.5 16.14 156.5 14.83C156.5 13.54 156.18 12.52 155.54 11.78C154.91 11.03 154.03 10.66 152.9 10.66C151.76 10.66 150.86 11.03 150.21 11.78C149.57 12.52 149.25 13.54 149.25 14.83C149.25 16.14 149.57 17.18 150.21 17.93C150.86 18.66 151.76 19.03 152.9 19.03ZM175.05 9.02C177.64 9.02 178.94 10.57 178.94 13.66L178.94 21L176.99 21L176.99 13.75C176.99 12.68 176.8 11.89 176.42 11.4C176.05 10.91 175.45 10.66 174.62 10.66C173.64 10.66 172.87 10.99 172.31 11.64C171.75 12.29 171.47 13.19 171.47 14.33L171.47 21L169.53 21L169.53 13.75C169.53 12.66 169.34 11.88 168.95 11.4C168.57 10.91 167.96 10.66 167.13 10.66C166.15 10.66 165.38 10.99 164.82 11.64C164.26 12.29 163.98 13.19 163.98 14.33L163.98 21L162.04 21L162.04 9.31L163.96 9.31L163.96 11.16C164.31 10.47 164.8 9.95 165.42 9.58C166.05 9.21 166.77 9.02 167.58 9.02C169.39 9.02 170.59 9.79 171.16 11.33C171.49 10.61 172.01 10.05 172.7 9.65C173.39 9.23 174.17 9.02 175.05 9.02ZM187.24 9.02C188.73 9.02 189.83 9.41 190.55 10.18C191.29 10.93 191.66 12.08 191.66 13.63L191.66 21L189.76 21L189.76 19.01C189.45 19.7 188.99 20.23 188.37 20.62C187.74 20.99 187.02 21.17 186.21 21.17C185.46 21.17 184.76 21.02 184.12 20.71C183.49 20.41 183 19.99 182.63 19.44C182.26 18.89 182.08 18.29 182.08 17.64C182.08 16.76 182.3 16.08 182.75 15.6C183.2 15.11 183.93 14.75 184.96 14.54C185.99 14.32 187.41 14.21 189.23 14.21L189.76 14.21L189.76 13.42C189.76 12.44 189.56 11.73 189.16 11.3C188.76 10.85 188.11 10.63 187.22 10.63C185.87 10.63 184.54 11.05 183.21 11.88L182.56 10.46C183.17 10.03 183.89 9.69 184.74 9.43C185.61 9.16 186.44 9.02 187.24 9.02ZM186.47 19.63C187.43 19.63 188.21 19.31 188.82 18.67C189.45 18.02 189.76 17.18 189.76 16.15L189.76 15.46L189.33 15.46C187.92 15.46 186.85 15.52 186.11 15.65C185.38 15.76 184.85 15.96 184.53 16.25C184.22 16.52 184.07 16.93 184.07 17.47C184.07 18.1 184.29 18.62 184.74 19.03C185.21 19.43 185.78 19.63 186.47 19.63ZM197.15 21L195.21 21L195.21 9.31L197.15 9.31L197.15 21ZM195.02 6.43L195.02 4.25L197.37 4.25L197.37 6.43L195.02 6.43ZM202.72 21L200.78 21L200.78 4.08L202.72 4.08L202.72 21ZM206.06 21L206.06 18.55L208.5 18.55L208.5 21L206.06 21ZM216.38 21.17C215.23 21.17 214.23 20.92 213.38 20.42C212.53 19.93 211.87 19.23 211.41 18.34C210.96 17.43 210.74 16.36 210.74 15.14C210.74 13.93 210.97 12.86 211.43 11.95C211.91 11.02 212.57 10.3 213.42 9.79C214.29 9.28 215.3 9.02 216.45 9.02C217.23 9.02 218 9.17 218.75 9.46C219.5 9.73 220.11 10.09 220.58 10.56L219.93 12C218.82 11.11 217.7 10.66 216.57 10.66C215.37 10.66 214.43 11.05 213.76 11.83C213.09 12.62 212.75 13.72 212.75 15.14C212.75 16.55 213.09 17.64 213.76 18.41C214.43 19.18 215.37 19.56 216.57 19.56C217.7 19.56 218.82 19.11 219.93 18.22L220.58 19.66C220.08 20.12 219.45 20.49 218.7 20.76C217.95 21.03 217.18 21.17 216.38 21.17ZM227.78 21.17C226.67 21.17 225.7 20.92 224.85 20.42C224.02 19.93 223.37 19.22 222.9 18.31C222.45 17.38 222.23 16.31 222.23 15.1C222.23 13.88 222.45 12.81 222.9 11.9C223.37 10.97 224.02 10.26 224.85 9.77C225.7 9.27 226.67 9.02 227.78 9.02C228.88 9.02 229.85 9.27 230.7 9.77C231.55 10.26 232.2 10.97 232.65 11.9C233.11 12.81 233.34 13.88 233.34 15.1C233.34 16.31 233.11 17.38 232.65 18.31C232.2 19.22 231.55 19.93 230.7 20.42C229.85 20.92 228.88 21.17 227.78 21.17ZM227.78 19.56C228.93 19.56 229.81 19.18 230.42 18.43C231.04 17.66 231.35 16.55 231.35 15.1C231.35 13.67 231.04 12.58 230.42 11.81C229.79 11.02 228.91 10.63 227.78 10.63C226.64 10.63 225.76 11.02 225.14 11.81C224.51 12.58 224.2 13.67 224.2 15.1C224.2 16.54 224.5 17.64 225.11 18.41C225.74 19.18 226.63 19.56 227.78 19.56ZM249.26 9.02C251.85 9.02 253.14 10.57 253.14 13.66L253.14 21L251.2 21L251.2 13.75C251.2 12.68 251.01 11.89 250.62 11.4C250.25 10.91 249.65 10.66 248.82 10.66C247.85 10.66 247.08 10.99 246.52 11.64C245.96 12.29 245.68 13.19 245.68 14.33L245.68 21L243.74 21L243.74 13.75C243.74 12.66 243.55 11.88 243.16 11.4C242.77 10.91 242.17 10.66 241.34 10.66C240.36 10.66 239.59 10.99 239.03 11.64C238.47 12.29 238.19 13.19 238.19 14.33L238.19 21L236.25 21L236.25 9.31L238.17 9.31L238.17 11.16C238.52 10.47 239.01 9.95 239.63 9.58C240.26 9.21 240.98 9.02 241.79 9.02C243.6 9.02 244.79 9.79 245.37 11.33C245.7 10.61 246.21 10.05 246.9 9.65C247.59 9.23 248.38 9.02 249.26 9.02Z" />
</svg>